PathFileType	4	(X/Y/Z)	C:\Users\Basilio\Documents\Thesis Gigler\squatting_fais\c3dfiles\077\SLS_front_pre5\markers_experimental.trc
DataRate	CameraRate	NumFrames	NumMarkers	Units	OrigDataRate	OrigDataStartFrame	OrigNumFrames
200.000000	200.000000	4	60	mm	200.000000	982	1572
Frame#	Time	FHD			LBHD			RBHD			C7			T10			CLAV			LSHO			LUUPA			LMUPA			LDUPA			LLEP			LMEP			LRAD			LUL			LRFIN			RSHO			RUPA1			RMUPA			RDUPA			RLEP			RMEP			RRAD			RUL			RUFIN			LASI			RASI			USACR			LSACR			RSACR			LTHI1			LTHI2			LTHI3			LTHI4			LLFC			LMFC			LTIB1			LTIB2			LTIB3			LTIB4			LLMAL			LHEE			LMT1			LMT2			LMT5			RTHI			RTHI2			RTHI3			RTHI4			RLFC			RMFC			RTIB1			RTIB2			RTIB3			RTIB4			RLMAL			RMMAL			RHEE			RMT1			RMT2			RMT5			
		X1	Y1	Z1	X2	Y2	Z2	X3	Y3	Z3	X4	Y4	Z4	X5	Y5	Z5	X6	Y6	Z6	X7	Y7	Z7	X8	Y8	Z8	X9	Y9	Z9	X10	Y10	Z10	X11	Y11	Z11	X12	Y12	Z12	X13	Y13	Z13	X14	Y14	Z14	X15	Y15	Z15	X16	Y16	Z16	X17	Y17	Z17	X18	Y18	Z18	X19	Y19	Z19	X20	Y20	Z20	X21	Y21	Z21	X22	Y22	Z22	X23	Y23	Z23	X24	Y24	Z24	X25	Y25	Z25	X26	Y26	Z26	X27	Y27	Z27	X28	Y28	Z28	X29	Y29	Z29	X30	Y30	Z30	X31	Y31	Z31	X32	Y32	Z32	X33	Y33	Z33	X34	Y34	Z34	X35	Y35	Z35	X36	Y36	Z36	X37	Y37	Z37	X38	Y38	Z38	X39	Y39	Z39	X40	Y40	Z40	X41	Y41	Z41	X42	Y42	Z42	X43	Y43	Z43	X44	Y44	Z44	X45	Y45	Z45	X46	Y46	Z46	X47	Y47	Z47	X48	Y48	Z48	X49	Y49	Z49	X50	Y50	Z50	X51	Y51	Z51	X52	Y52	Z52	X53	Y53	Z53	X54	Y54	Z54	X55	Y55	Z55	X56	Y56	Z56	X57	Y57	Z57	X58	Y58	Z58	X59	Y59	Z59	X60	Y60	Z60	

983	4.91	-384.2027587890626	1879.684204101563	-929.3699340820315	-520.1615600585939	1765.22705078125	-995.662780761719	-522.8952636718751	1759.580932617188	-849.0691528320315	-556.7984008789064	1618.004028320313	-941.120300292969	-562.3263549804689	1288.568969726563	-944.9626464843752	nan	nan	nan	-413.655975341797	1627.887817382813	-1104.008911132813	-245.1473693847657	1607.194213867188	-1213.632446289063	-218.2423248291016	1635.984497070313	-1183.419311523438	-176.7618255615235	1610.486938476563	-1220.189819335938	-112.1665954589844	1623.365478515625	-1216.902587890625	-98.60279846191409	1555.45556640625	-1191.89111328125	177.2532196044922	1688.480346679688	-1099.649780273438	179.9226531982422	1694.96533203125	-1180.245849609375	270.8125305175782	1725.228149414063	-1106.641357421875	-418.9214782714845	1604.172607421875	-772.059997558594	-257.2054138183594	1575.125854492188	-679.0023193359376	-235.7766876220704	1604.603515625	-712.4620361328126	-187.6845092773438	1581.853271484375	-682.6975097656251	-123.5134963989258	1594.910766601563	-694.5184936523439	-113.7382354736328	1523.950805664063	-730.0242309570314	nan	nan	nan	163.0299682617188	1664.969360351563	-752.0311279296876	237.4503784179688	1688.50830078125	-841.1141357421877	-363.6622314453126	1090.854248046875	-1065.439453125	-395.0344238281251	1115.67822265625	-785.5288085937502	-573.6535644531251	1182.245971679688	-943.837097167969	-578.6356201171876	1152.516723632813	-972.1407470703127	-588.6260375976564	1150.31201171875	-917.491638183594	-419.1578369140626	869.7232666015627	-1118.750366210938	-386.6853332519532	791.9957275390627	-1115.055541992188	-339.0680541992188	796.8496704101565	-1108.120361328125	-413.3631896972657	739.2873535156251	-1100.4189453125	-378.2152099609376	593.3552246093751	-1078.411865234375	-381.7523803710938	568.9309082031251	-946.6375732421877	-346.7353210449219	367.8240356445313	-1012.292663574219	-370.0733337402344	325.1228637695313	-1086.662719726563	-341.8812866210938	321.0871582031251	-1049.603271484375	-350.8358764648438	241.6824798583985	-1020.435363769531	-399.9429931640626	122.0506668090821	-1078.248779296875	-454.4110717773439	81.49492645263673	-1028.9072265625	-244.7209625244141	89.56789398193361	-1008.405334472656	-241.0744781494141	101.9552688598633	-1049.297607421875	-378.8208312988282	134.7308502197266	-990.0251464843752	-339.6461486816407	791.2314453125002	-720.6504516601564	-281.6136474609376	756.8958129882814	-724.0409545898439	-251.7531433105469	771.8331298828127	-730.6044921875001	-275.3103332519532	675.5476074218751	-732.6972656250001	-258.5279541015626	615.2819824218751	-731.5621948242189	-237.0980834960938	601.5574951171876	-859.6514892578127	-237.650131225586	473.0228271484376	-751.3111572265626	-314.4304504394532	411.3959045410157	-708.8193359375001	-277.8186340332032	397.5769042968751	-735.3690185546876	-288.7580871582032	356.0707397460938	-775.315856933594	-394.4275512695314	199.4042663574219	-717.5781250000001	-374.2649230957032	199.3639068603516	-809.0574951171877	-469.8338012695314	171.5553131103516	-770.307312011719	-249.8553771972657	116.7134628295899	-771.8083496093752	-252.3077392578126	118.6097793579102	-733.0964355468751	-272.9528198242188	100.5302505493164	-686.2971801757814	
984	4.915	-384.357635498047	1880.361083984375	-927.6836547851565	-520.2612304687501	1765.631225585938	-993.986999511719	-522.7874145507814	1759.8369140625	-847.1597900390627	-556.8150024414064	1618.607788085938	-939.2879028320315	-561.7175903320314	1289.067504882813	-943.340515136719	nan	nan	nan	-413.550506591797	1628.593627929688	-1102.256469726563	-245.2258300781251	1607.801025390625	-1212.2705078125	-218.7084045410157	1636.845458984375	-1182.236938476563	-177.1964569091797	1611.535278320313	-1219.158447265625	-113.0107192993164	1624.316772460938	-1215.898071289063	-98.94673919677737	1556.352905273438	-1190.949951171875	174.7189025878907	1689.5615234375	-1100.162353515625	179.8914337158203	1695.673828125	-1179.628540039063	270.5841064453126	1726.308349609375	-1106.216674804688	-418.6835021972657	1604.85400390625	-770.3931274414065	-256.7492370605469	1575.975952148438	-676.9873657226564	-235.4491577148438	1605.314575195313	-710.8462524414064	-187.4869995117188	1582.696533203125	-681.1279907226564	-123.1427841186524	1595.71044921875	-693.7167358398439	-113.4998245239258	1524.854370117188	-728.4220581054689	nan	nan	nan	163.1782379150391	1666.265625	-750.8411865234376	237.3685150146485	1689.628295898438	-840.443298339844	-363.6373596191407	1090.868041992188	-1064.207153320313	-394.2981567382814	1115.911254882813	-784.196228027344	-573.3024291992189	1183.048706054688	-942.213806152344	-578.5159301757814	1153.46337890625	-970.3994750976565	-588.0082397460939	1151.221923828125	-915.7593383789065	-420.305633544922	870.293884277344	-1117.532958984375	-388.596893310547	792.4082641601565	-1114.088623046875	-340.1186218261719	796.7297363281252	-1106.96044921875	-415.5879516601564	739.7066650390626	-1099.439086914063	-381.8008117675782	593.7067871093751	-1077.828369140625	-385.1278381347657	569.3651123046876	-945.945739746094	-348.7376098632813	368.5262756347657	-1011.822631835938	-371.9673767089844	325.3121337890626	-1086.318969726563	-343.8470153808594	321.7045288085938	-1049.519287109375	-351.8463439941407	241.6911926269532	-1020.239013671875	-400.431121826172	122.161247253418	-1078.227905273438	-454.8097229003907	81.32698059082033	-1028.8603515625	-244.3254547119141	91.63911437988283	-1007.929077148438	-241.8745117187501	103.2702789306641	-1049.272827148438	-378.8714904785157	135.9438171386719	-989.6755371093752	-344.7101440429688	789.2015380859377	-719.8901977539064	-287.4409179687501	753.6849975585939	-723.0975341796876	-257.2760620117188	767.8808593750001	-729.4402465820314	-283.0174255371094	672.1151733398439	-731.8885498046876	-266.3440246582032	611.5626831054689	-730.6861572265626	-245.0732116699219	597.4564819335939	-858.5042114257815	-245.4473571777344	469.332244873047	-750.4424438476564	-321.3858337402344	407.3990173339845	-707.7136230468751	-285.1570434570313	393.6617736816407	-734.3864746093751	-295.5105285644532	351.9247131347657	-773.9636230468752	-400.7039794921876	194.8265380859376	-716.1605834960939	-380.2619934082032	194.8058013916016	-807.4729003906252	-475.9701538085939	166.9794006347657	-769.1666259765627	-256.0530700683594	112.0593185424805	-769.913513183594	-258.6294860839844	113.8677444458008	-731.0527954101564	-279.5238037109376	95.52815246582033	-684.5134887695314	
985	4.92	-384.1979980468751	1880.4189453125	-926.1160888671877	-520.0672607421876	1765.780151367188	-992.257995605469	-522.5157470703126	1760.550903320313	-845.7920532226565	-556.6761474609376	1618.619750976563	-937.3379516601565	-561.3560180664064	1289.4462890625	-941.5487060546877	nan	nan	nan	-413.6848754882814	1628.925659179688	-1100.581420898438	-245.4724578857422	1608.144775390625	-1210.495361328125	-218.8020629882813	1637.235473632813	-1180.740234375	-177.3142852783203	1611.962646484375	-1217.71533203125	-113.6670913696289	1624.947998046875	-1214.597534179688	-99.17667388916018	1556.858642578125	-1189.737915039063	175.0986938476563	1690.490234375	-1099.116455078125	180.0400390625	1696.253784179688	-1178.70947265625	270.7176208496094	1726.745727539063	-1105.642700195313	-418.3642883300782	1605.378173828125	-768.5772094726565	-256.5498352050782	1576.830810546875	-675.4268188476564	-235.1103515625001	1606.278442382813	-709.0811767578126	-187.1307525634766	1583.514282226563	-679.4580078125001	-122.8552474975586	1596.439819335938	-691.6571655273439	-112.9526672363282	1525.466186523438	-726.7233886718751	nan	nan	nan	162.9413146972657	1667.2216796875	-750.2703247070314	237.3867340087891	1690.795654296875	-839.2395019531252	-363.9358215332032	1091.190185546875	-1063.113159179688	-393.5625610351564	1116.114501953125	-782.5455322265627	-572.7807006835939	1184.030151367188	-940.4967041015627	-578.3140869140626	1154.099365234375	-968.7354125976565	-587.6102905273439	1151.963623046875	-914.0769042968752	-421.7172851562501	870.8526000976565	-1116.442260742188	-390.2159118652345	792.5444335937502	-1113.105102539063	-342.6990966796876	797.1967773437502	-1106.169067382813	-418.606414794922	740.4993896484376	-1098.50634765625	-384.9296875000001	593.9508056640626	-1077.001831054688	-388.4716186523439	569.3203735351564	-945.1306762695315	-350.8733825683594	368.4981079101563	-1011.474914550781	-373.9635620117188	325.8565368652344	-1085.849731445313	-345.6169738769532	322.4536437988282	-1048.864624023438	-353.1463317871094	242.2679595947266	-1019.819274902344	-401.2161560058595	122.4875640869141	-1078.12744140625	-455.274139404297	81.28549194335939	-1028.852172851563	-244.7187957763672	92.64038085937501	-1007.717956542969	-242.3710021972657	104.2467269897461	-1049.178955078125	-379.3201293945313	136.0465698242188	-989.6787109375002	-349.8602600097657	787.2902832031252	-719.0648803710939	-293.3291015625001	750.4338989257814	-722.2236938476564	-263.1405944824219	763.7528076171876	-728.2850341796876	-290.6354370117188	668.8231811523439	-730.9284667968751	-274.4567565917969	607.8294067382814	-729.6615600585939	-253.1912689208985	593.7019042968751	-857.5322875976565	-252.500961303711	465.3650512695314	-749.0119628906251	-328.4193725585938	403.1726074218751	-706.4361572265626	-291.8754882812501	389.5804138183595	-732.9023437500001	-302.4335632324219	347.8547363281251	-772.6501464843752	-406.8718872070314	190.0027618408203	-714.8538208007814	-385.873016357422	190.3107147216797	-806.1206665039065	-481.8131713867189	162.4877166748047	-768.157653808594	-261.7154235839844	107.2728881835938	-767.9492187500001	-264.5125122070313	109.2425765991211	-729.2333984375001	-285.8713989257813	90.57380676269533	-682.8231201171876	
986	4.925	-383.9922180175782	1880.83251953125	-924.670349121094	-520.0482177734376	1766.337158203125	-990.5305786132815	-522.3743896484376	1760.616333007813	-843.9309082031252	-556.4591674804689	1619.171752929688	-935.508728027344	-560.9757690429689	1289.650024414063	-939.7478637695315	nan	nan	nan	-413.6333007812501	1629.219604492188	-1098.80322265625	-246.0692749023438	1608.420532226563	-1208.471435546875	-219.0075225830079	1637.48828125	-1179.042724609375	-177.4864807128907	1612.63671875	-1216.39404296875	-113.81005859375	1625.692016601563	-1213.666625976563	-99.381950378418	1557.452514648438	-1188.630859375	174.5751953125	1690.90576171875	-1098.368896484375	179.9102783203125	1697.111083984375	-1177.965576171875	270.1544799804688	1727.530029296875	-1105.029296875	-418.1878051757814	1605.776123046875	-766.9130859375001	-256.2205810546876	1577.427856445313	-673.6521606445314	-234.9490814208985	1606.653686523438	-707.4652709960939	-186.9190368652344	1584.080444335938	-678.0186157226564	-122.6265182495117	1597.261596679688	-690.1297607421876	-112.7379531860352	1526.1845703125	-725.1081542968751	nan	nan	nan	163.0580291748047	1668.233154296875	-749.0662231445314	237.353256225586	1691.841796875	-838.243347167969	-363.8162841796876	1091.121215820313	-1061.770263671875	-392.9093017578126	1116.094604492188	-781.2330322265627	-572.4252929687501	1184.705688476563	-938.8077392578127	-577.8225708007814	1155.043090820313	-967.0310668945315	-587.1401367187501	1152.6953125	-912.3503417968752	-422.4054260253907	871.0227050781252	-1115.2294921875	-391.957733154297	792.7903442382815	-1111.993896484375	-343.6650695800782	796.8790283203127	-1104.713012695313	-419.617889404297	740.5047607421876	-1097.3544921875	-387.5285034179689	594.2349243164064	-1076.126831054688	-391.5043029785157	569.4019775390626	-944.2536621093752	-352.7968139648438	368.7546386718751	-1011.137329101563	-374.7216796875001	325.8230285644532	-1085.4912109375	-347.1681823730469	322.6107482910157	-1048.459716796875	-354.7409973144532	242.9549865722657	-1019.799011230469	-401.8338012695314	122.5701446533203	-1078.109619140625	-455.5249023437501	81.0913772583008	-1028.8671875	-245.0697784423829	93.3566131591797	-1007.459594726563	-241.9283294677735	104.7268753051758	-1048.908203125	-379.9692077636719	136.1275482177735	-989.6702270507815	-355.0535278320313	785.1897583007815	-718.1036987304689	-299.3818359375001	747.0930175781251	-721.1997070312501	-268.9523315429688	759.6635742187501	-726.8293457031251	-298.4243774414063	665.5334472656251	-729.9175415039064	-282.6685791015626	604.3753051757814	-728.6173095703126	-261.5377807617188	589.9669189453126	-856.5478515625002	-260.0453186035157	461.6898193359376	-747.9058227539064	-335.5713806152344	398.8269348144532	-705.1729125976564	-299.0680847167969	385.8065185546876	-731.6420898437501	-308.9063110351563	343.7903442382813	-771.3164672851565	-412.6044921875001	185.4416198730469	-713.5675659179689	-390.8785400390626	185.5578002929688	-804.724060058594	-487.1153564453126	157.6901245117188	-767.1859741210939	-267.6574401855469	103.1201553344727	-766.4420166015626	-270.9013366699219	104.6699295043946	-727.8103637695314	-291.6391296386719	85.48410797119142	-681.1671142578126	
